# xmcd
#
# Track frame offsets:
#	150
#	15718
#	25727
#	39632
#	54881
#	70755
#	79548
#	86307
#	97415
#	110042
#	126807
#	135137
#	144133
#	159543
#	169458
#	183564
#	194730
#	207844
#	216806
#	227066
#	242830
#
# Disc length: 3451 seconds
#
# Revision: 1
# Processed by: cddbd v1.5.2PL0 Copyright (c) Steve Scherf et al.
# Submitted via: audiograbber 1.83.01
#
DISCID=210d7915
DTITLE=Boxcar Willie - Freight Train Heart
DYEAR=1900
DGENRE=Country
TTITLE0=Wabash Cannonball
TTITLE1=King Of The Road
TTITLE2=You Are My Sunshine
TTITLE3=Box Car Blues
TTITLE4=Your Cheatin' Heart
TTITLE5=Don't Let The Stars
TTITLE6=I Saw The Light
TTITLE7=Wreck Of The Old 97
TTITLE8=Peace In The Valley
TTITLE9=Mule Train
TTITLE10=Hey Good Lookin'
TTITLE11=Hobo And The Rose
TTITLE12=Kawliga
TTITLE13=Move It On Over
TTITLE14=London Leaves
TTITLE15=Rolling In My Sweet Baby's Arms
TTITLE16=San Antonio Rose
TTITLE17=Divorce Me C O D
TTITLE18=Heaven
TTITLE19=Red River Valley
TTITLE20=Train Medley
EXTD=
EXTT0=
EXTT1=
EXTT2=
EXTT3=
EXTT4=
EXTT5=
EXTT6=
EXTT7=
EXTT8=
EXTT9=
EXTT10=
EXTT11=
EXTT12=
EXTT13=
EXTT14=
EXTT15=
EXTT16=
EXTT17=
EXTT18=
EXTT19=
EXTT20=
PLAYORDER=
